# xmcd
#
# Track frame offsets: 
#        150
#        12220
#        24577
#        37225
#        53227
#        64780
#        83315
#        95895
#        107440
#        122822
#        136025
#        149120
#        164275
#        180760
#        194647
#        211380
#
# Disc length: 2977 seconds
#
# Revision: 4
# Processed by: cddbd v1.5.2PL0 Copyright (c) Steve Scherf et al.
# Submitted via: ExactAudioCopy v0.99pb5
#
DISCID=dd0b9f10
DTITLE=Larry Gatlin and The Gatlin Brothers - Larry Gatlin and The Gatlin 
DTITLE=Brothers 16 Biggest Hits (SONY)
DYEAR=2000
DGENRE=Country
TTITLE0=Broken Lady
TTITLE1=Statues Without Hearts
TTITLE2=I Don't Wanna Cry
TTITLE3=Love Is Just A Game
TTITLE4=Night Time Magic
TTITLE5=I've Done Enough Dyin' Today
TTITLE6=Take Me To Your Lovin' Place
TTITLE7=What Are We Doin' Lonesome
TTITLE8=Sure Feels Like Love
TTITLE9=Houston  (Means I'm One Day Closer To You)
TTITLE10=The Lady Takes The Cowboy Everytime
TTITLE11=She Used To Be Somebody's Baby
TTITLE12=Talkin' To The Moon
TTITLE13=Love Of A Lifetime
TTITLE14=Denver
TTITLE15=All The Gold In California
EXTD=
EXTT0=
EXTT1=
EXTT2=
EXTT3=
EXTT4=
EXTT5=
EXTT6=
EXTT7=
EXTT8=
EXTT9=
EXTT10=
EXTT11=
EXTT12=
EXTT13=
EXTT14=
EXTT15=
PLAYORDER=
